<?xml version="1.0" encoding="UTF-8"?>
<svg version="1.1" xmlns="http://www.w3.org/2000/svg" width="192" height="192">
<path d="M0 0 C0.90707199 -0.00852997 1.81414398 -0.01705994 2.748703 -0.02584839 C4.23791763 -0.02448883 4.23791763 -0.02448883 5.75721741 -0.02310181 C6.80461594 -0.02981903 7.85201447 -0.03653625 8.93115234 -0.04345703 C12.40194917 -0.06249318 15.87255323 -0.06636395 19.34339905 -0.06851196 C21.75091635 -0.07493552 24.15843285 -0.08166354 26.56594849 -0.08868408 C31.61572582 -0.10067059 36.66543466 -0.10436344 41.71522522 -0.10317993 C48.19320138 -0.10297656 54.67073971 -0.13029153 61.14861202 -0.16472435 C66.12166368 -0.18693526 71.09460896 -0.19101927 76.06770515 -0.18996048 C78.45637587 -0.19232471 80.84504915 -0.20119415 83.23367119 -0.21662521 C86.57126126 -0.23616902 89.90789395 -0.23049251 93.24549866 -0.21841431 C94.23628418 -0.22965332 95.2270697 -0.24089233 96.24787903 -0.25247192 C102.91719728 -0.19098246 102.91719728 -0.19098246 106.08609009 2.04779053 C109.19015646 6.70323401 109.81766521 9.6957692 109.82675171 15.38970947 C109.83249003 16.46654375 109.83249003 16.46654375 109.83834428 17.56513226 C109.84866423 19.97101671 109.84468407 22.37666206 109.8407135 24.78256226 C109.84506057 26.5073875 109.8502437 28.23221081 109.85620117 29.95703125 C109.86960383 34.64301994 109.87016837 39.32892803 109.86763787 44.01493216 C109.8665689 47.92648059 109.8714497 51.83801268 109.87624329 55.74955761 C109.88734312 64.9780195 109.88777338 74.20644068 109.88172913 83.43490601 C109.87568957 92.95523176 109.88799882 102.47540972 109.90929919 111.99571025 C109.9269136 120.16907502 109.93291676 128.34239275 109.92966145 136.5157758 C109.92784801 141.39749933 109.93049079 146.27911747 109.94437599 151.16082382 C109.95694688 155.75239349 109.95501722 160.34373281 109.9419651 164.93529892 C109.93959806 166.6195178 109.94233858 168.30375285 109.95058823 169.98795319 C109.96104698 172.28929419 109.95296258 174.58986102 109.9402771 176.89117432 C109.94044484 178.17833281 109.94061258 179.46549129 109.94078541 180.79165459 C109.52812434 184.61925028 108.59847116 187.01384239 106.5660553 190.26742554 C103.42808189 192.35940781 102.70573321 192.51966002 99.1321106 192.53485107 C97.77150261 192.54764603 97.77150261 192.54764603 96.38340759 192.56069946 C94.89419296 192.5593399 94.89419296 192.5593399 93.37489319 192.55795288 C92.32749466 192.5646701 91.28009613 192.57138733 90.20095825 192.57830811 C86.73016143 192.59734425 83.25955736 192.60121503 79.78871155 192.60336304 C77.38119425 192.6097866 74.97367774 192.61651462 72.56616211 192.62353516 C67.51638478 192.63552167 62.46667593 192.63921452 57.41688538 192.63803101 C50.93890921 192.63782764 44.46137088 192.66514261 37.98349857 192.69957542 C33.01044691 192.72178634 28.03750163 192.72587034 23.06440544 192.72481155 C20.67573473 192.72717579 18.28706144 192.73604523 15.89843941 192.75147629 C12.56084934 192.7710201 9.22421664 192.76534358 5.88661194 192.75326538 C4.89582642 192.76450439 3.90504089 192.77574341 2.88423157 192.787323 C-3.78508668 192.72583354 -3.78508668 192.72583354 -6.95397949 190.48706055 C-10.05804586 185.83161707 -10.68555461 182.83908187 -10.69464111 177.1451416 C-10.69846666 176.42725208 -10.70229221 175.70936256 -10.70623368 174.96971881 C-10.71655364 172.56383436 -10.71257347 170.15818901 -10.70860291 167.75228882 C-10.71294997 166.02746357 -10.7181331 164.30264026 -10.72409058 162.57781982 C-10.73749323 157.89183114 -10.73805778 153.20592304 -10.73552728 148.51991892 C-10.7344583 144.60837048 -10.73933911 140.6968384 -10.7441327 136.78529346 C-10.75523252 127.55683158 -10.75566278 118.3284104 -10.74961853 109.09994507 C-10.74357897 99.57961931 -10.75588822 90.05944136 -10.7771886 80.53914082 C-10.794803 72.36577605 -10.80080616 64.19245833 -10.79755086 56.01907527 C-10.79573741 51.13735174 -10.7983802 46.25573361 -10.8122654 41.37402725 C-10.82483628 36.78245758 -10.82290663 32.19111827 -10.80985451 27.59955215 C-10.80748747 25.91533328 -10.81022798 24.23109823 -10.81847763 22.54689789 C-10.82893638 20.24555688 -10.82085199 17.94499006 -10.8081665 15.64367676 C-10.80833425 14.35651827 -10.80850199 13.06935978 -10.80867481 11.74319649 C-10.39601374 7.9156008 -9.46636057 5.52100868 -7.4339447 2.26742554 C-4.29597129 0.17544326 -3.57362261 0.01519106 0 0 Z " fill="#BE6851" transform="translate(46.43394470214844,-0.267425537109375)"/>
<path d="M0 0 C0.76454498 -0.00525696 1.52908997 -0.01051392 2.31680298 -0.01593018 C4.84625632 -0.02914295 7.37508117 -0.02038698 9.90454102 -0.01025391 C11.66187155 -0.01227449 13.41920127 -0.0151858 15.17652893 -0.01895142 C18.86109392 -0.02337666 22.54544082 -0.0169381 26.22998047 -0.00292969 C30.95246238 0.01414981 35.67443235 0.00433024 40.39689541 -0.01364708 C44.02659457 -0.02449027 47.65617249 -0.02103591 51.28587532 -0.0132637 C53.02699914 -0.01126252 54.76813396 -0.01371811 56.50924492 -0.02070236 C58.94395955 -0.02832432 61.37784694 -0.01670222 63.8125 0 C64.89192116 -0.00910904 64.89192116 -0.00910904 65.9931488 -0.0184021 C68.97975116 0.01954022 71.21583602 0.26463865 73.91923523 1.57383728 C76.03889129 4.05225471 75.96624824 5.56557016 75.95678711 8.8059082 C75.966017 10.46794533 75.966017 10.46794533 75.97543335 12.16355896 C75.96106232 13.36045853 75.94669128 14.55735809 75.93188477 15.79052734 C75.93096832 17.01977432 75.93005188 18.2490213 75.92910767 19.51551819 C75.92151084 22.78416379 75.89549865 26.05203339 75.86218262 29.32049561 C75.83531175 32.63924935 75.8416309 35.9580105 75.84204102 39.27685547 C75.83220782 41.80225414 75.82054994 44.3276465 75.80688477 46.85302734 C75.80465912 48.04790268 75.80243347 49.24277802 75.80014038 50.47386169 C75.78738068 51.5850386 75.77462097 52.69621552 75.76147461 53.84106445 C75.75003922 55.30641884 75.75003922 55.30641884 75.7383728 56.80137634 C75.46039698 59.49023646 74.93001511 61.12636494 73.47094727 63.38818359 C70.4585203 64.89439708 67.34478293 64.55295743 64.03955078 64.56518555 C63.27354553 64.57175674 62.50754028 64.57832794 61.71832275 64.58509827 C59.17883207 64.60483948 56.63940047 64.61649392 54.09985352 64.62646484 C53.23385969 64.63054037 52.36786587 64.6346159 51.47562981 64.63881493 C46.89456291 64.65967639 42.31352601 64.67397935 37.73242188 64.68334961 C32.9929636 64.69443119 28.25397263 64.72885068 23.51467991 64.76852131 C19.87647099 64.79461747 16.23837478 64.80303504 12.60008049 64.80663109 C10.85251639 64.81151303 9.10495785 64.82317249 7.35748482 64.84166908 C4.91518772 64.865919 2.47411794 64.86512236 0.03173828 64.8581543 C-0.69304214 64.87096436 -1.41782257 64.88377441 -2.16456604 64.89697266 C-5.27460981 64.86454452 -7.07706806 64.77721828 -9.4773407 62.71124268 C-10.7557142 59.88752566 -10.90979683 57.84960851 -10.91723633 54.74926758 C-10.92669281 53.61806992 -10.93614929 52.48687225 -10.94589233 51.32139587 C-10.93981964 50.10464676 -10.93374695 48.88789764 -10.92749023 47.63427734 C-10.93036041 46.38187759 -10.93323059 45.12947784 -10.93618774 43.83912659 C-10.93822926 41.19183217 -10.93420215 38.54536896 -10.92016602 35.89819336 C-10.90305636 32.50620334 -10.91292991 29.11492454 -10.93088341 25.72296047 C-10.94433059 22.48504054 -10.93491641 19.24720655 -10.92749023 16.00927734 C-10.93659927 14.18111732 -10.93659927 14.18111732 -10.94589233 12.31602478 C-10.93643585 11.18797928 -10.92697937 10.05993378 -10.91723633 8.89770508 C-10.91484955 7.90383286 -10.91246277 6.90996063 -10.91000366 5.88597107 C-10.52905273 3.38818359 -10.52905273 3.38818359 -9.47535706 1.56809998 C-6.46556948 -0.2565364 -3.41623969 -0.02874816 0 0 Z " fill="#BE6851" transform="translate(63.529052734375,15.61181640625)"/>
<path d="M0 0 C0.77590485 -0.00525696 1.55180969 -0.01051392 2.35122681 -0.01593018 C4.91794927 -0.02914225 7.48405239 -0.02038807 10.05078125 -0.01025391 C11.83292765 -0.0122743 13.61507324 -0.01518545 15.3972168 -0.01895142 C19.1330553 -0.0233764 22.86867868 -0.01693817 26.60449219 -0.00292969 C31.39657209 0.01416236 36.18814795 0.0043221 40.98020935 -0.01364708 C44.66047981 -0.02448025 48.3406305 -0.02104074 52.02090454 -0.0132637 C53.78797464 -0.0112604 55.55505557 -0.01372553 57.32211304 -0.02070236 C59.79055649 -0.02830926 62.2581802 -0.01672393 64.7265625 0 C65.45912262 -0.00607269 66.19168274 -0.01214539 66.94644165 -0.0184021 C71.8801595 0.04362102 71.8801595 0.04362102 74.31532288 1.78038025 C76.52034897 5.16338516 75.83116972 9.42214638 75.80078125 13.32568359 C75.82076172 14.23253906 75.84074219 15.13939453 75.86132812 16.07373047 C75.86036133 17.38760742 75.86036133 17.38760742 75.859375 18.72802734 C75.86122803 19.52587646 75.86308105 20.32372559 75.86499023 21.14575195 C75.15029819 24.34012976 73.94490927 25.38662089 71.36328125 27.38818359 C68.70773347 27.78312728 66.4657954 27.93607605 63.8125 27.90576172 C62.68009384 27.91627563 62.68009384 27.91627563 61.52481079 27.92700195 C59.03309177 27.94458557 56.54251151 27.9329587 54.05078125 27.91943359 C52.31729922 27.92212842 50.58381866 27.92601077 48.8503418 27.93103027 C45.21876624 27.93692579 41.58758445 27.92836085 37.95605469 27.90966797 C33.3018408 27.88687813 28.64854954 27.90000096 23.99436951 27.92395782 C20.41525322 27.9384145 16.83635555 27.93381047 13.25723267 27.92344666 C11.54122814 27.920779 9.82520374 27.92405053 8.10922241 27.93336487 C5.71030129 27.94352867 3.3128725 27.92803366 0.9140625 27.90576172 C0.20537018 27.91385864 -0.50332214 27.92195557 -1.23348999 27.93029785 C-4.62711462 27.87194966 -6.36090573 27.60202426 -9.07728577 25.49598694 C-10.9095384 23.01942766 -11.13990163 21.78035836 -11.1328125 18.72802734 C-11.13345703 17.85210937 -11.13410156 16.97619141 -11.13476562 16.07373047 C-11.11478516 15.166875 -11.09480469 14.26001953 -11.07421875 13.32568359 C-11.08130859 12.41496094 -11.08839844 11.50423828 -11.09570312 10.56591797 C-11.03276171 3.99580238 -11.03276171 3.99580238 -9.58876038 1.78038025 C-6.60503662 -0.3476124 -3.53122335 -0.02927273 0 0 Z " fill="#AB5640" transform="translate(63.63671875,111.61181640625)"/>
<path d="M0 0 C1.13240616 -0.01051392 1.13240616 -0.01051392 2.28768921 -0.02124023 C4.77940823 -0.03882385 7.26998849 -0.02719698 9.76171875 -0.01367188 C11.49520078 -0.0163667 13.22868134 -0.02024905 14.9621582 -0.02526855 C18.59373376 -0.03116407 22.22491555 -0.02259914 25.85644531 -0.00390625 C30.5106592 0.01888359 35.16395046 0.00576076 39.81813049 -0.01819611 C43.39724678 -0.03265279 46.97614445 -0.02804875 50.55526733 -0.01768494 C52.27127186 -0.01501728 53.98729626 -0.01828881 55.70327759 -0.02760315 C58.10219871 -0.03776695 60.4996275 -0.02227194 62.8984375 0 C63.60712982 -0.00809692 64.31582214 -0.01619385 65.04598999 -0.02453613 C68.44862294 0.03396694 70.17289154 0.30201492 72.89077759 2.42224121 C74.63693247 4.76996077 74.94368006 5.81808652 74.91015625 8.70507812 C74.90628906 9.48625 74.90242188 10.26742187 74.8984375 11.07226562 C74.86169922 12.28269531 74.86169922 12.28269531 74.82421875 13.51757812 C74.82292969 14.32453125 74.82164062 15.13148438 74.8203125 15.96289062 C74.75975414 20.04048664 74.6298833 22.96061622 72.44921875 26.51757812 C69.43592773 28.02422364 66.32347199 27.6736267 63.01782227 27.67871094 C61.86881439 27.68615829 61.86881439 27.68615829 60.69659424 27.6937561 C58.15709543 27.7083875 55.61765907 27.7151808 53.078125 27.72070312 C51.3169708 27.72645311 49.55581663 27.73221086 47.79466248 27.73797607 C44.10000313 27.74848838 40.40536556 27.75432976 36.71069336 27.7578125 C31.97132052 27.76330236 27.23223424 27.78733979 22.49295139 27.81578445 C18.85474296 27.83438574 15.21660395 27.83961505 11.57835197 27.84114838 C9.83080412 27.84418036 8.08325764 27.85222719 6.3357563 27.86533356 C3.89361723 27.88234443 1.45218366 27.88052642 -0.98999023 27.87402344 C-1.71477066 27.88323822 -2.43955109 27.892453 -3.18629456 27.90194702 C-6.11709941 27.87743759 -8.07031758 27.86059058 -10.49807739 26.12736511 C-12.7095179 22.74564658 -12.01868446 18.48550923 -11.98828125 14.58007812 C-12.01825195 13.21979492 -12.01825195 13.21979492 -12.04882812 11.83203125 C-12.04818359 10.95611328 -12.04753906 10.08019531 -12.046875 9.17773438 C-12.04872803 8.37988525 -12.05058105 7.58203613 -12.05249023 6.76000977 C-10.6230022 0.37078951 -5.66187062 -0.06468778 0 0 Z " fill="#AC5640" transform="translate(64.55078125,148.482421875)"/>
<path d="M0 0 C0.76615128 -0.00365067 1.53230255 -0.00730133 2.32167053 -0.01106262 C4.85594807 -0.01917317 7.38958721 -0.00555417 9.92382812 0.0090332 C11.68355306 0.00955175 13.44327857 0.00903426 15.20300293 0.00752258 C18.89177086 0.00761233 22.58032035 0.01804651 26.26904297 0.03613281 C31.00050782 0.05882008 35.73165339 0.05936434 40.46315765 0.05261517 C44.09709518 0.04927578 47.73095973 0.0559047 51.36488342 0.0657444 C53.10962034 0.06959721 54.85436538 0.07074428 56.59910583 0.06915855 C59.03628032 0.06878824 61.47304348 0.08139847 63.91015625 0.09765625 C64.63336563 0.09517883 65.35657501 0.09270142 66.10169983 0.09014893 C69.77501068 0.12931287 71.31185366 0.27683148 74.45507812 2.37231445 C74.70507812 5.93481445 74.70507812 5.93481445 74.45507812 9.37231445 C73.45507812 10.37231445 73.45507812 10.37231445 70.5634613 10.49256897 C69.26884476 10.49034836 67.97422821 10.48812775 66.64038086 10.48583984 C65.57214584 10.48605888 65.57214584 10.48605888 64.48233032 10.48628235 C62.117747 10.48558316 59.75324151 10.47779051 57.38867188 10.4699707 C55.75342349 10.46810654 54.11817455 10.46668263 52.48292542 10.46568298 C48.17073027 10.46185763 43.8585686 10.4520272 39.54638672 10.440979 C35.14941867 10.43076526 30.75244523 10.42618544 26.35546875 10.42114258 C17.72198982 10.41040495 9.08853813 10.39332832 0.45507812 10.37231445 C0.46396057 11.0045845 0.47284302 11.63685455 0.48199463 12.2882843 C0.57035954 18.85778785 0.63076724 25.42712313 0.67480469 31.99707031 C0.69494346 34.45026504 0.7222563 36.90341164 0.75683594 39.35644531 C0.80525295 42.87878278 0.82802441 46.40048669 0.84570312 49.9230957 C0.86634827 51.02317459 0.88699341 52.12325348 0.90826416 53.25666809 C0.90856628 54.27749985 0.90886841 55.2983316 0.90917969 56.35009766 C0.91806213 57.24944534 0.92694458 58.14879303 0.93609619 59.07539368 C0.45507812 61.37231445 0.45507812 61.37231445 -1.40924072 63.1940155 C-3.54492187 64.37231445 -3.54492187 64.37231445 -6.16992188 64.24731445 C-8.54492188 63.37231445 -8.54492188 63.37231445 -10.54492188 60.37231445 C-10.80561829 57.86779785 -10.80561829 57.86779785 -10.81958008 54.84692383 C-10.82911209 53.71565063 -10.8386441 52.58437744 -10.84846497 51.41882324 C-10.84755356 50.19691284 -10.84664215 48.97500244 -10.84570312 47.71606445 C-10.84998825 46.46224976 -10.85427338 45.20843506 -10.85868835 43.91662598 C-10.86443595 41.26352961 -10.86586196 38.61082178 -10.8605957 35.95776367 C-10.85479655 32.5579323 -10.87174381 29.15864491 -10.89494038 25.7589035 C-10.91321125 22.51546101 -10.9094927 19.27204917 -10.90820312 16.02856445 C-10.91741287 14.80665405 -10.92662262 13.58474365 -10.93611145 12.32580566 C-10.92988266 11.19453247 -10.92365387 10.06325928 -10.91723633 8.89770508 C-10.91786575 7.90081665 -10.91849518 6.90392822 -10.91914368 5.87683105 C-10.54492188 3.37231445 -10.54492188 3.37231445 -9.49320984 1.55024719 C-6.47670485 -0.27352838 -3.42098314 -0.03615702 0 0 Z " fill="#864836" transform="translate(63.544921875,15.627685546875)"/>
<path d="M0 0 C0.33 0 0.66 0 1 0 C1.05066409 7.90199041 1.08571846 15.80393902 1.10986328 23.70605469 C1.11879903 26.39490375 1.13272238 29.0836587 1.15087891 31.77246094 C1.17510756 35.63479313 1.18647875 39.49698075 1.1953125 43.359375 C1.20563507 44.5636615 1.21595764 45.767948 1.22659302 47.00872803 C1.22674408 48.12958801 1.22689514 49.250448 1.22705078 50.40527344 C1.231492 51.39122498 1.23593323 52.37717651 1.24050903 53.39300537 C0.99003304 56.10803674 0.47669086 57.72299373 -1 60 C-3.93708001 61.46854 -6.89343705 61.13019549 -10.11181641 61.11352539 C-11.20953117 61.11374443 -11.20953117 61.11374443 -12.329422 61.1139679 C-14.75349876 61.11327003 -17.17749912 61.10548354 -19.6015625 61.09765625 C-21.28022215 61.09579162 -22.95888234 61.09436793 -24.63754272 61.09336853 C-29.05987038 61.08954688 -33.48216528 61.07971959 -37.90447998 61.06866455 C-42.41548215 61.05844286 -46.92648959 61.05386928 -51.4375 61.04882812 C-60.29168107 61.03809702 -69.14583781 61.02102481 -78 61 C-77.2884375 60.505 -77.2884375 60.505 -76.5625 60 C-74.22521971 57.36085638 -74.22521971 57.36085638 -74 50 C-52.88 50 -31.76 50 -10 50 C-10 36.14 -10 22.28 -10 8 C-31.12 8 -52.24 8 -74 8 C-74 7.67 -74 7.34 -74 7 C-49.91 6.67 -25.82 6.34 -1 6 C-0.67 4.02 -0.34 2.04 0 0 Z " fill="#AB5640" transform="translate(138,19)"/>
<path d="M0 0 C1.1348156 -0.00569504 1.1348156 -0.00569504 2.29255676 -0.01150513 C4.78913042 -0.01890472 7.28453595 0.00246043 9.78100586 0.02490234 C11.51687992 0.02728701 13.25275658 0.02819204 14.9886322 0.02767944 C18.62442205 0.03080631 22.25981723 0.04736398 25.89550781 0.07421875 C30.55857733 0.1082238 35.22121375 0.11584655 39.88439274 0.11432838 C43.46772912 0.11487188 47.0509706 0.12583525 50.63427544 0.14033127 C52.35388915 0.14670011 54.07351363 0.15063837 55.7931385 0.15211868 C58.19431047 0.15644939 60.5950208 0.17394429 62.99609375 0.1953125 C63.70838135 0.19440613 64.42066895 0.19349976 65.15454102 0.19256592 C68.80286269 0.24010306 70.30944624 0.4032376 73.43334961 2.48583984 C73.74584961 5.98583984 73.74584961 5.98583984 73.43334961 9.48583984 C71.43334961 11.48583984 71.43334961 11.48583984 68.45944214 11.72634888 C67.1848111 11.72190765 65.91018005 11.71746643 64.59692383 11.71289062 C63.89437469 11.71318268 63.19182556 11.71347473 62.46798706 11.71377563 C60.14121229 11.71238008 57.81475607 11.69680857 55.48803711 11.68115234 C53.87663956 11.67742301 52.26523974 11.67457566 50.65383911 11.6725769 C46.40901447 11.66493416 42.16432631 11.64528024 37.91955566 11.62316895 C33.58953701 11.60272428 29.25949635 11.59357815 24.92944336 11.58349609 C16.43068275 11.56203489 7.93203315 11.52789129 -0.56665039 11.48583984 C-0.54344727 12.40107422 -0.52024414 13.31630859 -0.49633789 14.25927734 C-0.46926758 16.04205078 -0.46926758 16.04205078 -0.44165039 17.86083984 C-0.41844727 19.04419922 -0.39524414 20.22755859 -0.37133789 21.44677734 C-0.56665039 24.48583984 -0.56665039 24.48583984 -2.56665039 26.48583984 C-6.06665039 26.73583984 -6.06665039 26.73583984 -9.56665039 26.48583984 C-12.84864091 23.20384932 -11.93539689 19.06958678 -11.94165039 14.61083984 C-11.96614258 13.69947266 -11.99063477 12.78810547 -12.01586914 11.84912109 C-12.01973633 10.96869141 -12.02360352 10.08826172 -12.02758789 9.18115234 C-12.03580566 8.37693848 -12.04402344 7.57272461 -12.05249023 6.74414062 C-10.66998066 0.31790267 -5.66372569 -0.08962125 0 0 Z " fill="#874937" transform="translate(64.566650390625,148.51416015625)"/>
<path d="M0 0 C0.77751114 -0.00365067 1.55502228 -0.00730133 2.35609436 -0.01106262 C4.92764078 -0.01917276 7.49855805 -0.00555571 10.07006836 0.0090332 C11.85460917 0.0095517 13.63915055 0.00903439 15.4236908 0.00752258 C19.16373215 0.00761232 22.90355803 0.01804643 26.64355469 0.03613281 C31.44461885 0.05883649 36.24536851 0.05936134 41.0464716 0.05261517 C44.73098053 0.04927882 48.41541737 0.05589868 52.09991264 0.0657444 C53.87059591 0.06960123 55.64128719 0.07074262 57.41197395 0.06915855 C59.88287863 0.06878896 62.3533752 0.08137759 64.82421875 0.09765625 C65.92845184 0.09394012 65.92845184 0.09394012 67.05499268 0.09014893 C72.11866833 0.14357068 72.11866833 0.14357068 74.34741211 2.37231445 C74.53491211 5.93481445 74.53491211 5.93481445 74.34741211 9.37231445 C73.34741211 10.37231445 73.34741211 10.37231445 70.45579529 10.49256897 C69.16117874 10.49034836 67.86656219 10.48812775 66.53271484 10.48583984 C65.46447983 10.48605888 65.46447983 10.48605888 64.37466431 10.48628235 C62.01008099 10.48558316 59.64557549 10.47779051 57.28100586 10.4699707 C55.64575748 10.46810654 54.01050854 10.46668263 52.3752594 10.46568298 C48.06306426 10.46185763 43.75090259 10.4520272 39.4387207 10.440979 C35.04175265 10.43076526 30.64477922 10.42618544 26.24780273 10.42114258 C17.6143238 10.41040495 8.98087211 10.39332832 0.34741211 10.37231445 C0.37061523 11.35973633 0.39381836 12.3471582 0.41772461 13.36450195 C0.44479492 15.28649414 0.44479492 15.28649414 0.47241211 17.24731445 C0.49561523 18.52348633 0.51881836 19.7996582 0.54272461 21.11450195 C0.34741211 24.37231445 0.34741211 24.37231445 -1.65258789 26.37231445 C-5.15258789 26.68481445 -5.15258789 26.68481445 -8.65258789 26.37231445 C-11.50058606 22.1003172 -10.98277105 18.3943316 -10.96508789 13.37231445 C-10.98120117 12.45708008 -10.99731445 11.5418457 -11.01391602 10.59887695 C-11.01456055 9.71973633 -11.01520508 8.8405957 -11.01586914 7.93481445 C-11.0188501 7.13172852 -11.02183105 6.32864258 -11.02490234 5.5012207 C-9.97400324 -0.50785483 -5.0962688 -0.0530621 0 0 Z " fill="#864836" transform="translate(63.652587890625,111.627685546875)"/>
<path d="M0 0 C21.12 0 42.24 0 64 0 C64 1.65 64 3.3 64 5 C42.88 5 21.76 5 0 5 C0 3.35 0 1.7 0 0 Z " fill="#BC6750" transform="translate(64,160)"/>
<path d="M0 0 C21.12 0 42.24 0 64 0 C64 1.65 64 3.3 64 5 C42.88 5 21.76 5 0 5 C0 3.35 0 1.7 0 0 Z " fill="#BE6851" transform="translate(64,123)"/>
<path d="M0 0 C2.76603263 1.39225696 3.86711406 2.55498441 6 5 C6.22838498 9.33931462 5.71933762 11.19845236 2.8125 14.4375 C-0.53970418 16.29983565 -2.22907665 16.72209171 -6 16 C-9.16196359 13.25408425 -9.91691332 11.59199258 -10.5 7.4375 C-10 4 -10 4 -8.375 1.5625 C-5.22306429 -0.51114192 -3.71443562 -0.66859841 0 0 Z " fill="#FCA834" transform="translate(61,88)"/>
</svg>
